# xmcd CD database file
#
# Track frame offsets:
#	150
#	16537
#	33986
#	50667
#	68774
#	93958
#	113092
#	129173
#	152090
#	168244
#	187198
#	206567
#	234155
#	257060
#	281135
#	295410
#	306960
#
# Disc length: 4311 seconds
#
# Revision: 0
# Processed by: cddbd v1.4PL0 Copyright (c) Steve Scherf et al.
# Submitted via: CDex 1.51
#
DISCID=e710d511
DTITLE=Villagranma Sexteto - Puro como un Habano
DYEAR=2003
DGENRE=Salsa
TTITLE0=Pico y pala
TTITLE1=El cafetal
TTITLE2=Estaciones
TTITLE3=Puro como un Habano
TTITLE4=Inesita
TTITLE5=Escuchame
TTITLE6=mollendo cafe
TTITLE7=Juramento
TTITLE8=La paloma
TTITLE9=Rico vacilion
TTITLE10=hasta siempre
TTITLE11=Fantastico amor 
TTITLE12=Lagrimas negras
TTITLE13=El carnaval
TTITLE14=Besamo mucho
TTITLE15=Quizas quizas quizas
TTITLE16=Guantanamera
EXTD=YEAR: 2003
EXTT0=
EXTT1=
EXTT2=
EXTT3=
EXTT4=
EXTT5=
EXTT6=
EXTT7=
EXTT8=
EXTT9=
EXTT10=
EXTT11=
EXTT12=
EXTT13=
EXTT14=
EXTT15=
EXTT16=
PLAYORDER=
